<mxfile host="app.diagrams.net" agent="Mozilla/5.0 (X11; Linux x86_64) AppleWebKit/537.36 (KHTML, like Gecko) Chrome/129.0.0.0 Safari/537.36" version="25.0.3">
  <diagram name="Page-1" id="2FgXMHYgAzfw4vXK2u5j">
    <mxGraphModel dx="1434" dy="688" grid="1" gridSize="10" guides="1" tooltips="1" connect="1" arrows="1" fold="1" page="1" pageScale="1" pageWidth="850" pageHeight="1100" math="0" shadow="0">
      <root>
        <mxCell id="0" />
        <mxCell id="1" parent="0" />
        <mxCell id="llo0r_avCpRBpbE9xumy-1" value="&lt;h1 style=&quot;margin-top: 0px;&quot;&gt;&lt;span style=&quot;background-color: initial; font-size: 12px;&quot;&gt;Main Objects:&lt;/span&gt;&lt;br&gt;&lt;/h1&gt;&lt;div&gt;&lt;p&gt;• User / Customer / Cardholder&lt;/p&gt;&lt;p&gt;• ATM System&lt;/p&gt;&lt;p&gt;&lt;b&gt;Ideal Main Flow of Events:&lt;/b&gt;&lt;/p&gt;&lt;p&gt;• Customer arrives at the ATM machine and inserts a bank card.&lt;/p&gt;&lt;p&gt;• The system requests for user authentication (request PIN number).&lt;/p&gt;&lt;p&gt;• Customer inserts PIN number.&lt;/p&gt;&lt;p&gt;• System prompts user to select services.&lt;/p&gt;&lt;p&gt;• Customer request withdrawal of money.&lt;/p&gt;&lt;p&gt;• System prompts the amount of withdrawal.&lt;/p&gt;&lt;p&gt;• Customer enters withdrawal amount.&lt;/p&gt;&lt;p&gt;• System displays success of request message, ejects card and dispense money.&lt;/p&gt;&lt;p&gt;•User collects card and money.&lt;/p&gt;&lt;/div&gt;" style="text;html=1;whiteSpace=wrap;overflow=hidden;rounded=0;" vertex="1" parent="1">
          <mxGeometry x="30" y="295" width="350" height="510" as="geometry" />
        </mxCell>
        <mxCell id="llo0r_avCpRBpbE9xumy-2" value="" style="shape=table;startSize=0;container=1;collapsible=0;childLayout=tableLayout;fontSize=16;" vertex="1" parent="1">
          <mxGeometry x="370" y="470" width="410" height="130" as="geometry" />
        </mxCell>
        <mxCell id="llo0r_avCpRBpbE9xumy-3" value="" style="shape=tableRow;horizontal=0;startSize=0;swimlaneHead=0;swimlaneBody=0;strokeColor=inherit;top=0;left=0;bottom=0;right=0;collapsible=0;dropTarget=0;fillColor=none;points=[[0,0.5],[1,0.5]];portConstraint=eastwest;fontSize=16;" vertex="1" parent="llo0r_avCpRBpbE9xumy-2">
          <mxGeometry width="410" height="43" as="geometry" />
        </mxCell>
        <mxCell id="llo0r_avCpRBpbE9xumy-4" value="Actor" style="shape=partialRectangle;html=1;whiteSpace=wrap;connectable=0;strokeColor=inherit;overflow=hidden;fillColor=none;top=0;left=0;bottom=0;right=0;pointerEvents=1;fontSize=16;" vertex="1" parent="llo0r_avCpRBpbE9xumy-3">
          <mxGeometry width="204" height="43" as="geometry">
            <mxRectangle width="204" height="43" as="alternateBounds" />
          </mxGeometry>
        </mxCell>
        <mxCell id="llo0r_avCpRBpbE9xumy-5" value="System Response" style="shape=partialRectangle;html=1;whiteSpace=wrap;connectable=0;strokeColor=inherit;overflow=hidden;fillColor=none;top=0;left=0;bottom=0;right=0;pointerEvents=1;fontSize=16;" vertex="1" parent="llo0r_avCpRBpbE9xumy-3">
          <mxGeometry x="204" width="206" height="43" as="geometry">
            <mxRectangle width="206" height="43" as="alternateBounds" />
          </mxGeometry>
        </mxCell>
        <mxCell id="llo0r_avCpRBpbE9xumy-7" value="" style="shape=tableRow;horizontal=0;startSize=0;swimlaneHead=0;swimlaneBody=0;strokeColor=inherit;top=0;left=0;bottom=0;right=0;collapsible=0;dropTarget=0;fillColor=none;points=[[0,0.5],[1,0.5]];portConstraint=eastwest;fontSize=16;" vertex="1" parent="llo0r_avCpRBpbE9xumy-2">
          <mxGeometry y="43" width="410" height="44" as="geometry" />
        </mxCell>
        <mxCell id="llo0r_avCpRBpbE9xumy-8" value="user inserts card" style="shape=partialRectangle;html=1;whiteSpace=wrap;connectable=0;strokeColor=inherit;overflow=hidden;fillColor=none;top=0;left=0;bottom=0;right=0;pointerEvents=1;fontSize=16;" vertex="1" parent="llo0r_avCpRBpbE9xumy-7">
          <mxGeometry width="204" height="44" as="geometry">
            <mxRectangle width="204" height="44" as="alternateBounds" />
          </mxGeometry>
        </mxCell>
        <mxCell id="llo0r_avCpRBpbE9xumy-9" value="" style="shape=partialRectangle;html=1;whiteSpace=wrap;connectable=0;strokeColor=inherit;overflow=hidden;fillColor=none;top=0;left=0;bottom=0;right=0;pointerEvents=1;fontSize=16;" vertex="1" parent="llo0r_avCpRBpbE9xumy-7">
          <mxGeometry x="204" width="206" height="44" as="geometry">
            <mxRectangle width="206" height="44" as="alternateBounds" />
          </mxGeometry>
        </mxCell>
        <mxCell id="llo0r_avCpRBpbE9xumy-11" value="" style="shape=tableRow;horizontal=0;startSize=0;swimlaneHead=0;swimlaneBody=0;strokeColor=inherit;top=0;left=0;bottom=0;right=0;collapsible=0;dropTarget=0;fillColor=none;points=[[0,0.5],[1,0.5]];portConstraint=eastwest;fontSize=16;" vertex="1" parent="llo0r_avCpRBpbE9xumy-2">
          <mxGeometry y="87" width="410" height="43" as="geometry" />
        </mxCell>
        <mxCell id="llo0r_avCpRBpbE9xumy-12" value="" style="shape=partialRectangle;html=1;whiteSpace=wrap;connectable=0;strokeColor=inherit;overflow=hidden;fillColor=none;top=0;left=0;bottom=0;right=0;pointerEvents=1;fontSize=16;" vertex="1" parent="llo0r_avCpRBpbE9xumy-11">
          <mxGeometry width="204" height="43" as="geometry">
            <mxRectangle width="204" height="43" as="alternateBounds" />
          </mxGeometry>
        </mxCell>
        <mxCell id="llo0r_avCpRBpbE9xumy-13" value="system prompts user for PIN" style="shape=partialRectangle;html=1;whiteSpace=wrap;connectable=0;strokeColor=inherit;overflow=hidden;fillColor=none;top=0;left=0;bottom=0;right=0;pointerEvents=1;fontSize=16;" vertex="1" parent="llo0r_avCpRBpbE9xumy-11">
          <mxGeometry x="204" width="206" height="43" as="geometry">
            <mxRectangle width="206" height="43" as="alternateBounds" />
          </mxGeometry>
        </mxCell>
        <mxCell id="llo0r_avCpRBpbE9xumy-15" value="" style="shape=umlLifeline;perimeter=lifelinePerimeter;whiteSpace=wrap;html=1;container=1;dropTarget=0;collapsible=0;recursiveResize=0;outlineConnect=0;portConstraint=eastwest;newEdgeStyle={&quot;curved&quot;:0,&quot;rounded&quot;:0};participant=umlActor;" vertex="1" parent="1">
          <mxGeometry x="210" y="810" width="20" height="300" as="geometry" />
        </mxCell>
        <mxCell id="llo0r_avCpRBpbE9xumy-16" value="ATM" style="shape=umlLifeline;perimeter=lifelinePerimeter;whiteSpace=wrap;html=1;container=1;dropTarget=0;collapsible=0;recursiveResize=0;outlineConnect=0;portConstraint=eastwest;newEdgeStyle={&quot;curved&quot;:0,&quot;rounded&quot;:0};" vertex="1" parent="1">
          <mxGeometry x="460" y="800" width="100" height="300" as="geometry" />
        </mxCell>
        <mxCell id="llo0r_avCpRBpbE9xumy-17" value="" style="html=1;points=[[0,0,0,0,5],[0,1,0,0,-5],[1,0,0,0,5],[1,1,0,0,-5]];perimeter=orthogonalPerimeter;outlineConnect=0;targetShapes=umlLifeline;portConstraint=eastwest;newEdgeStyle={&quot;curved&quot;:0,&quot;rounded&quot;:0};" vertex="1" parent="1">
          <mxGeometry x="100" y="915" width="10" height="80" as="geometry" />
        </mxCell>
        <mxCell id="llo0r_avCpRBpbE9xumy-18" value="dispatch" style="html=1;verticalAlign=bottom;endArrow=block;curved=0;rounded=0;entryX=0;entryY=0;entryDx=0;entryDy=5;" edge="1" target="llo0r_avCpRBpbE9xumy-17" parent="1">
          <mxGeometry relative="1" as="geometry">
            <mxPoint x="30" y="920" as="sourcePoint" />
          </mxGeometry>
        </mxCell>
        <mxCell id="llo0r_avCpRBpbE9xumy-19" value="return" style="html=1;verticalAlign=bottom;endArrow=open;dashed=1;endSize=8;curved=0;rounded=0;exitX=0;exitY=1;exitDx=0;exitDy=-5;" edge="1" source="llo0r_avCpRBpbE9xumy-17" parent="1">
          <mxGeometry relative="1" as="geometry">
            <mxPoint x="30" y="990" as="targetPoint" />
          </mxGeometry>
        </mxCell>
        <mxCell id="llo0r_avCpRBpbE9xumy-21" value="card okay" style="html=1;verticalAlign=bottom;endArrow=open;dashed=1;endSize=8;curved=0;rounded=0;" edge="1" parent="1" source="llo0r_avCpRBpbE9xumy-29">
          <mxGeometry relative="1" as="geometry">
            <mxPoint x="590" y="954.5" as="sourcePoint" />
            <mxPoint x="510" y="954.5" as="targetPoint" />
          </mxGeometry>
        </mxCell>
        <mxCell id="llo0r_avCpRBpbE9xumy-22" value="insert card" style="html=1;verticalAlign=bottom;endArrow=block;curved=0;rounded=0;" edge="1" parent="1" target="llo0r_avCpRBpbE9xumy-16">
          <mxGeometry width="80" relative="1" as="geometry">
            <mxPoint x="230" y="890" as="sourcePoint" />
            <mxPoint x="310" y="890" as="targetPoint" />
          </mxGeometry>
        </mxCell>
        <mxCell id="llo0r_avCpRBpbE9xumy-26" value="" style="html=1;points=[[0,0,0,0,5],[0,1,0,0,-5],[1,0,0,0,5],[1,1,0,0,-5]];perimeter=orthogonalPerimeter;outlineConnect=0;targetShapes=umlLifeline;portConstraint=eastwest;newEdgeStyle={&quot;curved&quot;:0,&quot;rounded&quot;:0};" vertex="1" parent="1">
          <mxGeometry x="20" y="1150" width="10" height="80" as="geometry" />
        </mxCell>
        <mxCell id="llo0r_avCpRBpbE9xumy-27" value="callback" style="html=1;verticalAlign=bottom;endArrow=block;curved=0;rounded=0;entryX=1;entryY=0;entryDx=0;entryDy=5;" edge="1" target="llo0r_avCpRBpbE9xumy-26" parent="1">
          <mxGeometry relative="1" as="geometry">
            <mxPoint x="100" y="1155" as="sourcePoint" />
          </mxGeometry>
        </mxCell>
        <mxCell id="llo0r_avCpRBpbE9xumy-28" value="return" style="html=1;verticalAlign=bottom;endArrow=open;dashed=1;endSize=8;curved=0;rounded=0;exitX=1;exitY=1;exitDx=0;exitDy=-5;" edge="1" source="llo0r_avCpRBpbE9xumy-26" parent="1">
          <mxGeometry relative="1" as="geometry">
            <mxPoint x="100" y="1225" as="targetPoint" />
          </mxGeometry>
        </mxCell>
        <mxCell id="llo0r_avCpRBpbE9xumy-29" value="Bank Server" style="shape=umlLifeline;perimeter=lifelinePerimeter;whiteSpace=wrap;html=1;container=1;dropTarget=0;collapsible=0;recursiveResize=0;outlineConnect=0;portConstraint=eastwest;newEdgeStyle={&quot;curved&quot;:0,&quot;rounded&quot;:0};" vertex="1" parent="1">
          <mxGeometry x="620" y="800" width="100" height="300" as="geometry" />
        </mxCell>
        <mxCell id="llo0r_avCpRBpbE9xumy-37" value="" style="html=1;points=[[0,0,0,0,5],[0,1,0,0,-5],[1,0,0,0,5],[1,1,0,0,-5]];perimeter=orthogonalPerimeter;outlineConnect=0;targetShapes=umlLifeline;portConstraint=eastwest;newEdgeStyle={&quot;curved&quot;:0,&quot;rounded&quot;:0};" vertex="1" parent="llo0r_avCpRBpbE9xumy-29">
          <mxGeometry x="40" y="120" width="10" height="100" as="geometry" />
        </mxCell>
        <mxCell id="llo0r_avCpRBpbE9xumy-30" value="Bank Account" style="shape=umlLifeline;perimeter=lifelinePerimeter;whiteSpace=wrap;html=1;container=1;dropTarget=0;collapsible=0;recursiveResize=0;outlineConnect=0;portConstraint=eastwest;newEdgeStyle={&quot;curved&quot;:0,&quot;rounded&quot;:0};" vertex="1" parent="1">
          <mxGeometry x="790" y="800" width="100" height="300" as="geometry" />
        </mxCell>
        <mxCell id="llo0r_avCpRBpbE9xumy-32" value="verify card" style="html=1;verticalAlign=bottom;endArrow=block;curved=0;rounded=0;" edge="1" parent="1">
          <mxGeometry width="80" relative="1" as="geometry">
            <mxPoint x="510" y="920" as="sourcePoint" />
            <mxPoint x="670" y="920" as="targetPoint" />
          </mxGeometry>
        </mxCell>
        <mxCell id="llo0r_avCpRBpbE9xumy-33" value="request PIN" style="html=1;verticalAlign=bottom;endArrow=block;curved=0;rounded=0;" edge="1" parent="1">
          <mxGeometry width="80" relative="1" as="geometry">
            <mxPoint x="509.5" y="980" as="sourcePoint" />
            <mxPoint x="219.5" y="980" as="targetPoint" />
          </mxGeometry>
        </mxCell>
        <mxCell id="llo0r_avCpRBpbE9xumy-34" value="PIN Entered" style="html=1;verticalAlign=bottom;endArrow=open;dashed=1;endSize=8;curved=0;rounded=0;" edge="1" parent="1">
          <mxGeometry relative="1" as="geometry">
            <mxPoint x="219.5" y="1010" as="sourcePoint" />
            <mxPoint x="509.5" y="1010" as="targetPoint" />
          </mxGeometry>
        </mxCell>
        <mxCell id="llo0r_avCpRBpbE9xumy-35" value="verify PIN" style="html=1;verticalAlign=bottom;endArrow=block;curved=0;rounded=0;" edge="1" parent="1" source="llo0r_avCpRBpbE9xumy-20">
          <mxGeometry width="80" relative="1" as="geometry">
            <mxPoint x="510" y="1030" as="sourcePoint" />
            <mxPoint x="670" y="1030" as="targetPoint" />
          </mxGeometry>
        </mxCell>
        <mxCell id="llo0r_avCpRBpbE9xumy-36" value="" style="html=1;verticalAlign=bottom;endArrow=block;curved=0;rounded=0;" edge="1" parent="1" target="llo0r_avCpRBpbE9xumy-20">
          <mxGeometry width="80" relative="1" as="geometry">
            <mxPoint x="510" y="1030" as="sourcePoint" />
            <mxPoint x="670" y="1030" as="targetPoint" />
          </mxGeometry>
        </mxCell>
        <mxCell id="llo0r_avCpRBpbE9xumy-20" value="" style="html=1;points=[[0,0,0,0,5],[0,1,0,0,-5],[1,0,0,0,5],[1,1,0,0,-5]];perimeter=orthogonalPerimeter;outlineConnect=0;targetShapes=umlLifeline;portConstraint=eastwest;newEdgeStyle={&quot;curved&quot;:0,&quot;rounded&quot;:0};" vertex="1" parent="1">
          <mxGeometry x="505" y="850" width="10" height="180" as="geometry" />
        </mxCell>
      </root>
    </mxGraphModel>
  </diagram>
</mxfile>
